<mxfile host="drawio-plugin" modified="2022-12-08T13:46:44.930Z" agent="5.0 (Windows NT 6.2; Win64; x64) AppleWebKit/537.36 (KHTML, like Gecko) Chrome/89.0.4389.114 Safari/537.36" etag="3Lm0OxU3X8gpaJPaAQKh" version="20.5.3" type="embed" pages="3"><diagram id="4qSX8llksCYm_vDA60sh" name="用户登陆"><mxGraphModel dx="847" dy="772" grid="1" gridSize="10" guides="1" tooltips="1" connect="1" arrows="1" fold="1" page="1" pageScale="1" pageWidth="1200" pageHeight="1920" math="0" shadow="0"><root><mxCell id="0"/><mxCell id="1" parent="0"/><mxCell id="3" style="edgeStyle=none;html=1;exitX=0.5;exitY=1;exitDx=0;exitDy=0;rounded=0;" parent="1" source="2" edge="1"><mxGeometry relative="1" as="geometry"><mxPoint x="375" y="250" as="targetPoint"/></mxGeometry></mxCell><mxCell id="2" value="用户登陆-单点登陆" style="rounded=0;whiteSpace=wrap;html=1;" parent="1" vertex="1"><mxGeometry x="320" y="150" width="110" height="50" as="geometry"/></mxCell><mxCell id="7" value="" style="edgeStyle=none;html=1;rounded=0;" parent="1" source="5" target="6" edge="1"><mxGeometry relative="1" as="geometry"/></mxCell><mxCell id="5" value="用户点击登陆发送异步请求&lt;br&gt;传入userInfo" style="rounded=0;whiteSpace=wrap;html=1;" parent="1" vertex="1"><mxGeometry x="295" y="250" width="160" height="40" as="geometry"/></mxCell><mxCell id="9" value="" style="edgeStyle=none;html=1;rounded=0;" parent="1" source="6" target="8" edge="1"><mxGeometry relative="1" as="geometry"/></mxCell><mxCell id="6" value="访问service-user" style="whiteSpace=wrap;html=1;rounded=0;" parent="1" vertex="1"><mxGeometry x="315" y="330" width="120" height="40" as="geometry"/></mxCell><mxCell id="13" value="" style="edgeStyle=none;html=1;rounded=0;" parent="1" source="8" target="12" edge="1"><mxGeometry relative="1" as="geometry"/></mxCell><mxCell id="16" value="" style="edgeStyle=none;html=1;rounded=0;" parent="1" source="8" target="15" edge="1"><mxGeometry relative="1" as="geometry"/></mxCell><mxCell id="8" value="根据userInfo查数据库" style="rhombus;whiteSpace=wrap;html=1;rounded=0;" parent="1" vertex="1"><mxGeometry x="305" y="400" width="140" height="70" as="geometry"/></mxCell><mxCell id="12" value="登陆失败" style="whiteSpace=wrap;html=1;rounded=0;" parent="1" vertex="1"><mxGeometry x="535" y="411.25" width="105" height="47.5" as="geometry"/></mxCell><mxCell id="14" value="null" style="text;html=1;align=center;verticalAlign=middle;resizable=0;points=[];autosize=1;strokeColor=none;fillColor=none;rounded=0;" parent="1" vertex="1"><mxGeometry x="465" y="410" width="30" height="20" as="geometry"/></mxCell><mxCell id="19" value="" style="edgeStyle=none;html=1;rounded=0;" parent="1" source="15" target="18" edge="1"><mxGeometry relative="1" as="geometry"/></mxCell><mxCell id="15" value="生成token" style="whiteSpace=wrap;html=1;rounded=0;" parent="1" vertex="1"><mxGeometry x="315" y="510" width="120" height="30" as="geometry"/></mxCell><mxCell id="17" value="! null" style="text;html=1;align=center;verticalAlign=middle;resizable=0;points=[];autosize=1;strokeColor=none;fillColor=none;rounded=0;" parent="1" vertex="1"><mxGeometry x="385" y="480" width="40" height="20" as="geometry"/></mxCell><mxCell id="21" value="" style="edgeStyle=none;html=1;rounded=0;" parent="1" source="18" target="20" edge="1"><mxGeometry relative="1" as="geometry"/></mxCell><mxCell id="18" value="token存入redis" style="whiteSpace=wrap;html=1;rounded=0;" parent="1" vertex="1"><mxGeometry x="315" y="580" width="120" height="30" as="geometry"/></mxCell><mxCell id="20" value="返回一个Map （含有token 和nickName）" style="whiteSpace=wrap;html=1;rounded=0;" parent="1" vertex="1"><mxGeometry x="315" y="640" width="120" height="40" as="geometry"/></mxCell><mxCell id="25" value="" style="edgeStyle=none;html=1;rounded=0;" parent="1" source="23" target="24" edge="1"><mxGeometry relative="1" as="geometry"/></mxCell><mxCell id="23" value="路由" style="whiteSpace=wrap;html=1;rounded=0;" parent="1" vertex="1"><mxGeometry x="70" y="350" width="90" height="40" as="geometry"/></mxCell><mxCell id="24" value="" style="whiteSpace=wrap;html=1;rounded=0;" parent="1" vertex="1"><mxGeometry x="70" y="430" width="90" height="40" as="geometry"/></mxCell><mxCell id="26" value="Table" style="shape=table;startSize=30;container=1;collapsible=1;childLayout=tableLayout;fixedRows=1;rowLines=0;fontStyle=1;align=center;resizeLast=1;" parent="1" vertex="1"><mxGeometry x="70" y="510" width="180" height="150" as="geometry"/></mxCell><mxCell id="27" value="" style="shape=tableRow;horizontal=0;startSize=0;swimlaneHead=0;swimlaneBody=0;fillColor=none;collapsible=0;dropTarget=0;points=[[0,0.5],[1,0.5]];portConstraint=eastwest;top=0;left=0;right=0;bottom=0;" parent="26" vertex="1"><mxGeometry y="30" width="180" height="30" as="geometry"/></mxCell><mxCell id="28" value="PK,FK1" style="shape=partialRectangle;connectable=0;fillColor=none;top=0;left=0;bottom=0;right=0;fontStyle=1;overflow=hidden;" parent="27" vertex="1"><mxGeometry width="60" height="30" as="geometry"><mxRectangle width="60" height="30" as="alternateBounds"/></mxGeometry></mxCell><mxCell id="29" value="Row 1" style="shape=partialRectangle;connectable=0;fillColor=none;top=0;left=0;bottom=0;right=0;align=left;spacingLeft=6;fontStyle=5;overflow=hidden;" parent="27" vertex="1"><mxGeometry x="60" width="120" height="30" as="geometry"><mxRectangle width="120" height="30" as="alternateBounds"/></mxGeometry></mxCell><mxCell id="30" value="" style="shape=tableRow;horizontal=0;startSize=0;swimlaneHead=0;swimlaneBody=0;fillColor=none;collapsible=0;dropTarget=0;points=[[0,0.5],[1,0.5]];portConstraint=eastwest;top=0;left=0;right=0;bottom=1;" parent="26" vertex="1"><mxGeometry y="60" width="180" height="30" as="geometry"/></mxCell><mxCell id="31" value="PK,FK2" style="shape=partialRectangle;connectable=0;fillColor=none;top=0;left=0;bottom=0;right=0;fontStyle=1;overflow=hidden;" parent="30" vertex="1"><mxGeometry width="60" height="30" as="geometry"><mxRectangle width="60" height="30" as="alternateBounds"/></mxGeometry></mxCell><mxCell id="32" value="Row 2" style="shape=partialRectangle;connectable=0;fillColor=none;top=0;left=0;bottom=0;right=0;align=left;spacingLeft=6;fontStyle=5;overflow=hidden;" parent="30" vertex="1"><mxGeometry x="60" width="120" height="30" as="geometry"><mxRectangle width="120" height="30" as="alternateBounds"/></mxGeometry></mxCell><mxCell id="33" value="" style="shape=tableRow;horizontal=0;startSize=0;swimlaneHead=0;swimlaneBody=0;fillColor=none;collapsible=0;dropTarget=0;points=[[0,0.5],[1,0.5]];portConstraint=eastwest;top=0;left=0;right=0;bottom=0;" parent="26" vertex="1"><mxGeometry y="90" width="180" height="30" as="geometry"/></mxCell><mxCell id="34" value="" style="shape=partialRectangle;connectable=0;fillColor=none;top=0;left=0;bottom=0;right=0;editable=1;overflow=hidden;" parent="33" vertex="1"><mxGeometry width="60" height="30" as="geometry"><mxRectangle width="60" height="30" as="alternateBounds"/></mxGeometry></mxCell><mxCell id="35" value="Row 3" style="shape=partialRectangle;connectable=0;fillColor=none;top=0;left=0;bottom=0;right=0;align=left;spacingLeft=6;overflow=hidden;" parent="33" vertex="1"><mxGeometry x="60" width="120" height="30" as="geometry"><mxRectangle width="120" height="30" as="alternateBounds"/></mxGeometry></mxCell><mxCell id="36" value="" style="shape=tableRow;horizontal=0;startSize=0;swimlaneHead=0;swimlaneBody=0;fillColor=none;collapsible=0;dropTarget=0;points=[[0,0.5],[1,0.5]];portConstraint=eastwest;top=0;left=0;right=0;bottom=0;" parent="26" vertex="1"><mxGeometry y="120" width="180" height="30" as="geometry"/></mxCell><mxCell id="37" value="" style="shape=partialRectangle;connectable=0;fillColor=none;top=0;left=0;bottom=0;right=0;editable=1;overflow=hidden;" parent="36" vertex="1"><mxGeometry width="60" height="30" as="geometry"><mxRectangle width="60" height="30" as="alternateBounds"/></mxGeometry></mxCell><mxCell id="38" value="Row 4" style="shape=partialRectangle;connectable=0;fillColor=none;top=0;left=0;bottom=0;right=0;align=left;spacingLeft=6;overflow=hidden;" parent="36" vertex="1"><mxGeometry x="60" width="120" height="30" as="geometry"><mxRectangle width="120" height="30" as="alternateBounds"/></mxGeometry></mxCell></root></mxGraphModel></diagram><diagram id="n-O3gxA8gHq2rYlEGuaB" name="购物车模块分析"><mxGraphModel dx="1168" dy="770" grid="1" gridSize="10" guides="1" tooltips="1" connect="1" arrows="1" fold="1" page="1" pageScale="1" pageWidth="900" pageHeight="1600" math="0" shadow="0"><root><mxCell id="o0xMHP7HOTVTw_kzXA3D-0"/><mxCell id="o0xMHP7HOTVTw_kzXA3D-1" parent="o0xMHP7HOTVTw_kzXA3D-0"/><mxCell id="o0xMHP7HOTVTw_kzXA3D-4" value="" style="edgeStyle=none;html=1;" parent="o0xMHP7HOTVTw_kzXA3D-1" target="o0xMHP7HOTVTw_kzXA3D-3" edge="1"><mxGeometry relative="1" as="geometry"><mxPoint x="300" y="150" as="sourcePoint"/></mxGeometry></mxCell><mxCell id="o0xMHP7HOTVTw_kzXA3D-7" value="" style="edgeStyle=none;html=1;" parent="o0xMHP7HOTVTw_kzXA3D-1" source="o0xMHP7HOTVTw_kzXA3D-3" edge="1"><mxGeometry relative="1" as="geometry"><mxPoint x="300" y="260" as="targetPoint"/></mxGeometry></mxCell><mxCell id="o0xMHP7HOTVTw_kzXA3D-3" value="查询正式的购物车" style="whiteSpace=wrap;html=1;" parent="o0xMHP7HOTVTw_kzXA3D-1" vertex="1"><mxGeometry x="250" y="200" width="100" height="30" as="geometry"/></mxCell><mxCell id="o0xMHP7HOTVTw_kzXA3D-5" value="登陆" style="text;html=1;align=center;verticalAlign=middle;resizable=0;points=[];autosize=1;strokeColor=none;fillColor=none;" parent="o0xMHP7HOTVTw_kzXA3D-1" vertex="1"><mxGeometry x="300" y="160" width="40" height="20" as="geometry"/></mxCell><mxCell id="o0xMHP7HOTVTw_kzXA3D-9" value="" style="edgeStyle=none;html=1;" parent="o0xMHP7HOTVTw_kzXA3D-1" target="o0xMHP7HOTVTw_kzXA3D-8" edge="1"><mxGeometry relative="1" as="geometry"><mxPoint x="300" y="300" as="sourcePoint"/></mxGeometry></mxCell><mxCell id="o0xMHP7HOTVTw_kzXA3D-12" value="" style="edgeStyle=none;html=1;" parent="o0xMHP7HOTVTw_kzXA3D-1" source="o0xMHP7HOTVTw_kzXA3D-8" target="o0xMHP7HOTVTw_kzXA3D-11" edge="1"><mxGeometry relative="1" as="geometry"/></mxCell><mxCell id="o0xMHP7HOTVTw_kzXA3D-8" value="合并购物车" style="whiteSpace=wrap;html=1;" parent="o0xMHP7HOTVTw_kzXA3D-1" vertex="1"><mxGeometry x="250" y="350" width="100" height="27.5" as="geometry"/></mxCell><mxCell id="o0xMHP7HOTVTw_kzXA3D-10" value="有数据" style="text;html=1;align=center;verticalAlign=middle;resizable=0;points=[];autosize=1;strokeColor=none;fillColor=none;" parent="o0xMHP7HOTVTw_kzXA3D-1" vertex="1"><mxGeometry x="300" y="310" width="50" height="20" as="geometry"/></mxCell><mxCell id="o0xMHP7HOTVTw_kzXA3D-21" style="edgeStyle=none;html=1;exitX=0.5;exitY=1;exitDx=0;exitDy=0;entryX=0;entryY=0.5;entryDx=0;entryDy=0;" parent="o0xMHP7HOTVTw_kzXA3D-1" source="o0xMHP7HOTVTw_kzXA3D-11" target="o0xMHP7HOTVTw_kzXA3D-19" edge="1"><mxGeometry relative="1" as="geometry"><Array as="points"><mxPoint x="300" y="535"/></Array></mxGeometry></mxCell><mxCell id="o0xMHP7HOTVTw_kzXA3D-11" value="更新mysql和redis" style="whiteSpace=wrap;html=1;" parent="o0xMHP7HOTVTw_kzXA3D-1" vertex="1"><mxGeometry x="250" y="440" width="100" height="28.75" as="geometry"/></mxCell><mxCell id="o0xMHP7HOTVTw_kzXA3D-17" style="edgeStyle=none;html=1;exitX=1;exitY=0.5;exitDx=0;exitDy=0;entryX=0.5;entryY=0;entryDx=0;entryDy=0;" parent="o0xMHP7HOTVTw_kzXA3D-1" source="o0xMHP7HOTVTw_kzXA3D-13" edge="1"><mxGeometry relative="1" as="geometry"><mxPoint x="450" y="350" as="targetPoint"/><Array as="points"><mxPoint x="450" y="290"/></Array></mxGeometry></mxCell><mxCell id="o0xMHP7HOTVTw_kzXA3D-13" value="&lt;span&gt;查询临时购物车&lt;/span&gt;" style="rhombus;whiteSpace=wrap;html=1;" parent="o0xMHP7HOTVTw_kzXA3D-1" vertex="1"><mxGeometry x="245" y="260" width="105" height="60" as="geometry"/></mxCell><mxCell id="FrHLdVk0rbErXKexYIeh-14" value="" style="edgeStyle=none;html=1;" parent="o0xMHP7HOTVTw_kzXA3D-1" source="o0xMHP7HOTVTw_kzXA3D-14" edge="1"><mxGeometry relative="1" as="geometry"><mxPoint x="640" y="145" as="targetPoint"/></mxGeometry></mxCell><mxCell id="o0xMHP7HOTVTw_kzXA3D-14" value="&lt;span&gt;用户登陆&lt;/span&gt;" style="rhombus;whiteSpace=wrap;html=1;" parent="o0xMHP7HOTVTw_kzXA3D-1" vertex="1"><mxGeometry x="250" y="120" width="100" height="50" as="geometry"/></mxCell><mxCell id="o0xMHP7HOTVTw_kzXA3D-20" value="" style="edgeStyle=none;html=1;exitX=0.5;exitY=1;exitDx=0;exitDy=0;" parent="o0xMHP7HOTVTw_kzXA3D-1" source="FrHLdVk0rbErXKexYIeh-0" edge="1"><mxGeometry relative="1" as="geometry"><mxPoint x="450" y="410" as="sourcePoint"/><mxPoint x="450" y="440" as="targetPoint"/></mxGeometry></mxCell><mxCell id="o0xMHP7HOTVTw_kzXA3D-18" value="无数据" style="text;html=1;align=center;verticalAlign=middle;resizable=0;points=[];autosize=1;strokeColor=none;fillColor=none;" parent="o0xMHP7HOTVTw_kzXA3D-1" vertex="1"><mxGeometry x="385" y="270" width="50" height="20" as="geometry"/></mxCell><mxCell id="o0xMHP7HOTVTw_kzXA3D-19" value="返回购物车列表" style="whiteSpace=wrap;html=1;" parent="o0xMHP7HOTVTw_kzXA3D-1" vertex="1"><mxGeometry x="400" y="520" width="100" height="30" as="geometry"/></mxCell><mxCell id="FrHLdVk0rbErXKexYIeh-5" value="" style="edgeStyle=none;html=1;entryX=1;entryY=0.5;entryDx=0;entryDy=0;" parent="o0xMHP7HOTVTw_kzXA3D-1" source="FrHLdVk0rbErXKexYIeh-0" target="o0xMHP7HOTVTw_kzXA3D-19" edge="1"><mxGeometry relative="1" as="geometry"><mxPoint x="550" y="375" as="targetPoint"/><Array as="points"><mxPoint x="580" y="375"/><mxPoint x="580" y="535"/></Array></mxGeometry></mxCell><mxCell id="FrHLdVk0rbErXKexYIeh-0" value="正式购物车" style="rhombus;whiteSpace=wrap;html=1;" parent="o0xMHP7HOTVTw_kzXA3D-1" vertex="1"><mxGeometry x="410" y="350" width="80" height="50" as="geometry"/></mxCell><mxCell id="FrHLdVk0rbErXKexYIeh-1" value="！=null" style="text;html=1;align=center;verticalAlign=middle;resizable=0;points=[];autosize=1;strokeColor=none;fillColor=none;" parent="o0xMHP7HOTVTw_kzXA3D-1" vertex="1"><mxGeometry x="460" y="400" width="50" height="20" as="geometry"/></mxCell><mxCell id="FrHLdVk0rbErXKexYIeh-3" value="" style="edgeStyle=none;html=1;" parent="o0xMHP7HOTVTw_kzXA3D-1" source="FrHLdVk0rbErXKexYIeh-2" target="o0xMHP7HOTVTw_kzXA3D-19" edge="1"><mxGeometry relative="1" as="geometry"/></mxCell><mxCell id="FrHLdVk0rbErXKexYIeh-2" value="设置到redis中" style="whiteSpace=wrap;html=1;" parent="o0xMHP7HOTVTw_kzXA3D-1" vertex="1"><mxGeometry x="410" y="440" width="80" height="30" as="geometry"/></mxCell><mxCell id="FrHLdVk0rbErXKexYIeh-15" value="未登录" style="text;html=1;align=center;verticalAlign=middle;resizable=0;points=[];autosize=1;strokeColor=none;fillColor=none;" parent="o0xMHP7HOTVTw_kzXA3D-1" vertex="1"><mxGeometry x="345" y="120" width="50" height="20" as="geometry"/></mxCell><mxCell id="FrHLdVk0rbErXKexYIeh-20" value="" style="edgeStyle=none;html=1;" parent="o0xMHP7HOTVTw_kzXA3D-1" source="FrHLdVk0rbErXKexYIeh-18" target="FrHLdVk0rbErXKexYIeh-19" edge="1"><mxGeometry relative="1" as="geometry"/></mxCell><mxCell id="FrHLdVk0rbErXKexYIeh-23" style="edgeStyle=none;html=1;exitX=1;exitY=0.5;exitDx=0;exitDy=0;" parent="o0xMHP7HOTVTw_kzXA3D-1" source="FrHLdVk0rbErXKexYIeh-18" edge="1"><mxGeometry relative="1" as="geometry"><mxPoint x="450" y="550" as="targetPoint"/><Array as="points"><mxPoint x="810" y="145"/><mxPoint x="810" y="360"/><mxPoint x="810" y="590"/><mxPoint x="450" y="590"/></Array></mxGeometry></mxCell><mxCell id="FrHLdVk0rbErXKexYIeh-18" value="查询临时购物车" style="rhombus;whiteSpace=wrap;html=1;" parent="o0xMHP7HOTVTw_kzXA3D-1" vertex="1"><mxGeometry x="640" y="120" width="110" height="50" as="geometry"/></mxCell><mxCell id="FrHLdVk0rbErXKexYIeh-22" style="edgeStyle=none;html=1;entryX=0.5;entryY=1;entryDx=0;entryDy=0;" parent="o0xMHP7HOTVTw_kzXA3D-1" source="FrHLdVk0rbErXKexYIeh-19" target="o0xMHP7HOTVTw_kzXA3D-19" edge="1"><mxGeometry relative="1" as="geometry"><Array as="points"><mxPoint x="695" y="640"/><mxPoint x="450" y="640"/></Array></mxGeometry></mxCell><mxCell id="FrHLdVk0rbErXKexYIeh-19" value="存入redis" style="whiteSpace=wrap;html=1;" parent="o0xMHP7HOTVTw_kzXA3D-1" vertex="1"><mxGeometry x="650" y="350" width="90" height="25" as="geometry"/></mxCell><mxCell id="FrHLdVk0rbErXKexYIeh-21" value="存在数据" style="text;html=1;align=center;verticalAlign=middle;resizable=0;points=[];autosize=1;strokeColor=none;fillColor=none;" parent="o0xMHP7HOTVTw_kzXA3D-1" vertex="1"><mxGeometry x="700" y="240" width="60" height="20" as="geometry"/></mxCell><mxCell id="FrHLdVk0rbErXKexYIeh-24" value="没有数据返回null" style="text;html=1;align=center;verticalAlign=middle;resizable=0;points=[];autosize=1;strokeColor=none;fillColor=none;" parent="o0xMHP7HOTVTw_kzXA3D-1" vertex="1"><mxGeometry x="810" y="330" width="110" height="20" as="geometry"/></mxCell></root></mxGraphModel></diagram><diagram id="WjgfiSfpolgwmHtRC9zL" name="添加购物车功能"><mxGraphModel dx="584" dy="532" grid="1" gridSize="10" guides="1" tooltips="1" connect="1" arrows="1" fold="1" page="1" pageScale="1" pageWidth="1200" pageHeight="1920" math="0" shadow="0"><root><mxCell id="0"/><mxCell id="1" parent="0"/><mxCell id="kB7kejQIaPE2y5aazlFi-2" value="" style="edgeStyle=orthogonalEdgeStyle;rounded=0;orthogonalLoop=1;jettySize=auto;html=1;" parent="1" source="M76YWFCSfKeTJHnt3kB_-1" target="kB7kejQIaPE2y5aazlFi-1" edge="1"><mxGeometry relative="1" as="geometry"/></mxCell><mxCell id="M76YWFCSfKeTJHnt3kB_-1" value="添加购物车" style="text;html=1;align=center;verticalAlign=middle;resizable=0;points=[];autosize=1;strokeColor=none;fillColor=none;" parent="1" vertex="1"><mxGeometry x="300" y="110" width="80" height="30" as="geometry"/></mxCell><mxCell id="kB7kejQIaPE2y5aazlFi-4" value="" style="edgeStyle=orthogonalEdgeStyle;rounded=0;orthogonalLoop=1;jettySize=auto;html=1;" parent="1" source="kB7kejQIaPE2y5aazlFi-1" target="kB7kejQIaPE2y5aazlFi-3" edge="1"><mxGeometry relative="1" as="geometry"/></mxCell><mxCell id="kB7kejQIaPE2y5aazlFi-1" value="用户点击加入购物车" style="whiteSpace=wrap;html=1;" parent="1" vertex="1"><mxGeometry x="285" y="160" width="110" height="25" as="geometry"/></mxCell><mxCell id="kB7kejQIaPE2y5aazlFi-6" value="" style="edgeStyle=orthogonalEdgeStyle;rounded=0;orthogonalLoop=1;jettySize=auto;html=1;" parent="1" source="kB7kejQIaPE2y5aazlFi-3" target="kB7kejQIaPE2y5aazlFi-5" edge="1"><mxGeometry relative="1" as="geometry"/></mxCell><mxCell id="kB7kejQIaPE2y5aazlFi-17" value="" style="edgeStyle=orthogonalEdgeStyle;rounded=0;orthogonalLoop=1;jettySize=auto;html=1;entryX=1;entryY=0.5;entryDx=0;entryDy=0;" parent="1" source="kB7kejQIaPE2y5aazlFi-3" target="kB7kejQIaPE2y5aazlFi-8" edge="1"><mxGeometry relative="1" as="geometry"><mxPoint x="500" y="410" as="targetPoint"/><Array as="points"><mxPoint x="425" y="246"/><mxPoint x="425" y="406"/></Array></mxGeometry></mxCell><mxCell id="kB7kejQIaPE2y5aazlFi-3" value="前端JS" style="rhombus;whiteSpace=wrap;html=1;" parent="1" vertex="1"><mxGeometry x="275" y="220" width="130" height="52.5" as="geometry"/></mxCell><mxCell id="kB7kejQIaPE2y5aazlFi-9" value="" style="edgeStyle=orthogonalEdgeStyle;rounded=0;orthogonalLoop=1;jettySize=auto;html=1;" parent="1" source="kB7kejQIaPE2y5aazlFi-5" target="kB7kejQIaPE2y5aazlFi-8" edge="1"><mxGeometry relative="1" as="geometry"/></mxCell><mxCell id="kB7kejQIaPE2y5aazlFi-5" value="添加临时用户" style="whiteSpace=wrap;html=1;" parent="1" vertex="1"><mxGeometry x="285" y="320" width="110" height="25" as="geometry"/></mxCell><mxCell id="kB7kejQIaPE2y5aazlFi-7" value="未登录" style="text;html=1;align=center;verticalAlign=middle;resizable=0;points=[];autosize=1;strokeColor=none;fillColor=none;" parent="1" vertex="1"><mxGeometry x="330" y="275" width="60" height="30" as="geometry"/></mxCell><mxCell id="kB7kejQIaPE2y5aazlFi-11" value="" style="edgeStyle=orthogonalEdgeStyle;rounded=0;orthogonalLoop=1;jettySize=auto;html=1;" parent="1" source="kB7kejQIaPE2y5aazlFi-8" target="kB7kejQIaPE2y5aazlFi-10" edge="1"><mxGeometry relative="1" as="geometry"/></mxCell><mxCell id="kB7kejQIaPE2y5aazlFi-8" value="页面重定向&amp;nbsp;" style="whiteSpace=wrap;html=1;" parent="1" vertex="1"><mxGeometry x="280" y="390" width="120" height="32.5" as="geometry"/></mxCell><mxCell id="kB7kejQIaPE2y5aazlFi-13" value="" style="edgeStyle=orthogonalEdgeStyle;rounded=0;orthogonalLoop=1;jettySize=auto;html=1;" parent="1" source="kB7kejQIaPE2y5aazlFi-10" target="kB7kejQIaPE2y5aazlFi-12" edge="1"><mxGeometry relative="1" as="geometry"/></mxCell><mxCell id="kB7kejQIaPE2y5aazlFi-10" value="访问web-Guest" style="whiteSpace=wrap;html=1;" parent="1" vertex="1"><mxGeometry x="280" y="460" width="120" height="32.5" as="geometry"/></mxCell><mxCell id="kB7kejQIaPE2y5aazlFi-15" value="" style="edgeStyle=orthogonalEdgeStyle;rounded=0;orthogonalLoop=1;jettySize=auto;html=1;" parent="1" source="kB7kejQIaPE2y5aazlFi-12" target="kB7kejQIaPE2y5aazlFi-14" edge="1"><mxGeometry relative="1" as="geometry"/></mxCell><mxCell id="kB7kejQIaPE2y5aazlFi-12" value="controller处理" style="whiteSpace=wrap;html=1;" parent="1" vertex="1"><mxGeometry x="280" y="533.75" width="120" height="32.5" as="geometry"/></mxCell><mxCell id="kB7kejQIaPE2y5aazlFi-14" value="解析视图" style="whiteSpace=wrap;html=1;" parent="1" vertex="1"><mxGeometry x="280" y="610" width="120" height="32.5" as="geometry"/></mxCell><mxCell id="kB7kejQIaPE2y5aazlFi-18" value="登陆" style="text;html=1;align=center;verticalAlign=middle;resizable=0;points=[];autosize=1;strokeColor=none;fillColor=none;" parent="1" vertex="1"><mxGeometry x="430" y="317.5" width="50" height="30" as="geometry"/></mxCell><mxCell id="kB7kejQIaPE2y5aazlFi-20" value="controller处理流程" style="swimlane;fontStyle=0;childLayout=stackLayout;horizontal=1;startSize=30;horizontalStack=0;resizeParent=1;resizeParentMax=0;resizeLast=0;collapsible=1;marginBottom=0;whiteSpace=wrap;html=1;" parent="1" vertex="1"><mxGeometry x="490" y="500" width="140" height="90" as="geometry"/></mxCell><mxCell id="kB7kejQIaPE2y5aazlFi-21" value="拿到用户ID 拿到sku数据" style="text;strokeColor=none;fillColor=none;align=left;verticalAlign=middle;spacingLeft=4;spacingRight=4;overflow=hidden;points=[[0,0.5],[1,0.5]];portConstraint=eastwest;rotatable=0;whiteSpace=wrap;html=1;" parent="kB7kejQIaPE2y5aazlFi-20" vertex="1"><mxGeometry y="30" width="140" height="30" as="geometry"/></mxCell><mxCell id="kB7kejQIaPE2y5aazlFi-28" value="远程调用service-cart" style="text;strokeColor=none;fillColor=none;align=left;verticalAlign=middle;spacingLeft=4;spacingRight=4;overflow=hidden;points=[[0,0.5],[1,0.5]];portConstraint=eastwest;rotatable=0;whiteSpace=wrap;html=1;" parent="kB7kejQIaPE2y5aazlFi-20" vertex="1"><mxGeometry y="60" width="140" height="30" as="geometry"/></mxCell><mxCell id="kB7kejQIaPE2y5aazlFi-30" value="查询购物车走的是axios请求" style="text;html=1;align=center;verticalAlign=middle;resizable=0;points=[];autosize=1;strokeColor=none;fillColor=none;" parent="1" vertex="1"><mxGeometry x="570" y="110" width="170" height="30" as="geometry"/></mxCell><mxCell id="w3NYwbSdyyjRx3gyxYfG-3" value="" style="edgeStyle=orthogonalEdgeStyle;rounded=0;orthogonalLoop=1;jettySize=auto;html=1;" edge="1" parent="1" source="w3NYwbSdyyjRx3gyxYfG-1"><mxGeometry relative="1" as="geometry"><mxPoint x="844.9655172413793" y="279.9999999999999" as="targetPoint"/></mxGeometry></mxCell><mxCell id="w3NYwbSdyyjRx3gyxYfG-1" value="&lt;span style=&quot;text-align: left;&quot;&gt;远程调用service-cart&lt;/span&gt;" style="text;html=1;align=center;verticalAlign=middle;resizable=0;points=[];autosize=1;strokeColor=none;fillColor=none;" vertex="1" parent="1"><mxGeometry x="780" y="220" width="130" height="30" as="geometry"/></mxCell><mxCell id="w3NYwbSdyyjRx3gyxYfG-7" value="" style="edgeStyle=orthogonalEdgeStyle;rounded=0;orthogonalLoop=1;jettySize=auto;html=1;" edge="1" parent="1" source="w3NYwbSdyyjRx3gyxYfG-4" target="w3NYwbSdyyjRx3gyxYfG-6"><mxGeometry relative="1" as="geometry"/></mxCell><mxCell id="w3NYwbSdyyjRx3gyxYfG-14" value="" style="edgeStyle=orthogonalEdgeStyle;rounded=0;orthogonalLoop=1;jettySize=auto;html=1;" edge="1" parent="1" source="w3NYwbSdyyjRx3gyxYfG-4" target="w3NYwbSdyyjRx3gyxYfG-13"><mxGeometry relative="1" as="geometry"/></mxCell><mxCell id="w3NYwbSdyyjRx3gyxYfG-4" value="根据userId，skuId查询数据库" style="rhombus;whiteSpace=wrap;html=1;" vertex="1" parent="1"><mxGeometry x="762.5" y="280" width="165" height="80" as="geometry"/></mxCell><mxCell id="w3NYwbSdyyjRx3gyxYfG-10" value="" style="edgeStyle=orthogonalEdgeStyle;rounded=0;orthogonalLoop=1;jettySize=auto;html=1;entryX=0.5;entryY=0;entryDx=0;entryDy=0;" edge="1" parent="1" source="w3NYwbSdyyjRx3gyxYfG-6" target="w3NYwbSdyyjRx3gyxYfG-19"><mxGeometry relative="1" as="geometry"><mxPoint x="845" y="450" as="targetPoint"/><Array as="points"/></mxGeometry></mxCell><mxCell id="w3NYwbSdyyjRx3gyxYfG-6" value="num+1" style="whiteSpace=wrap;html=1;" vertex="1" parent="1"><mxGeometry x="785" y="390" width="120" height="30" as="geometry"/></mxCell><mxCell id="w3NYwbSdyyjRx3gyxYfG-8" value="！=null" style="text;html=1;align=center;verticalAlign=middle;resizable=0;points=[];autosize=1;strokeColor=none;fillColor=none;" vertex="1" parent="1"><mxGeometry x="840" y="355" width="60" height="30" as="geometry"/></mxCell><mxCell id="w3NYwbSdyyjRx3gyxYfG-12" value="" style="edgeStyle=orthogonalEdgeStyle;rounded=0;orthogonalLoop=1;jettySize=auto;html=1;" edge="1" parent="1" source="w3NYwbSdyyjRx3gyxYfG-9" target="w3NYwbSdyyjRx3gyxYfG-11"><mxGeometry relative="1" as="geometry"/></mxCell><mxCell id="w3NYwbSdyyjRx3gyxYfG-9" value="更新数据库和redis" style="whiteSpace=wrap;html=1;" vertex="1" parent="1"><mxGeometry x="785" y="533.75" width="120" height="30" as="geometry"/></mxCell><mxCell id="w3NYwbSdyyjRx3gyxYfG-11" value="刷新redis过期时间" style="whiteSpace=wrap;html=1;" vertex="1" parent="1"><mxGeometry x="785" y="600" width="120" height="30" as="geometry"/></mxCell><mxCell id="w3NYwbSdyyjRx3gyxYfG-17" value="" style="edgeStyle=orthogonalEdgeStyle;rounded=0;orthogonalLoop=1;jettySize=auto;html=1;entryX=1;entryY=0.5;entryDx=0;entryDy=0;" edge="1" parent="1" source="w3NYwbSdyyjRx3gyxYfG-13" target="w3NYwbSdyyjRx3gyxYfG-9"><mxGeometry relative="1" as="geometry"><mxPoint x="960" y="520" as="targetPoint"/><Array as="points"><mxPoint x="1060" y="549"/></Array></mxGeometry></mxCell><mxCell id="w3NYwbSdyyjRx3gyxYfG-13" value="创建cartInfo 将sku信息设置进去" style="whiteSpace=wrap;html=1;" vertex="1" parent="1"><mxGeometry x="1000" y="390" width="120" height="30" as="geometry"/></mxCell><mxCell id="w3NYwbSdyyjRx3gyxYfG-15" value="null" style="text;html=1;align=center;verticalAlign=middle;resizable=0;points=[];autosize=1;strokeColor=none;fillColor=none;" vertex="1" parent="1"><mxGeometry x="980" y="285" width="40" height="30" as="geometry"/></mxCell><mxCell id="w3NYwbSdyyjRx3gyxYfG-20" value="" style="edgeStyle=orthogonalEdgeStyle;rounded=0;orthogonalLoop=1;jettySize=auto;html=1;entryX=0.5;entryY=0;entryDx=0;entryDy=0;" edge="1" parent="1" source="w3NYwbSdyyjRx3gyxYfG-19" target="w3NYwbSdyyjRx3gyxYfG-9"><mxGeometry relative="1" as="geometry"/></mxCell><mxCell id="w3NYwbSdyyjRx3gyxYfG-19" value="从数据库查最新价格" style="whiteSpace=wrap;html=1;" vertex="1" parent="1"><mxGeometry x="785" y="470" width="120" height="30" as="geometry"/></mxCell></root></mxGraphModel></diagram></mxfile>